<svg width="210" height="52" viewBox="0 0 210 52" fill="none" xmlns="http://www.w3.org/2000/svg">
<path opacity="0.5" fill-rule="evenodd" clip-rule="evenodd" d="M0.173828 20.423L1.55054 15.1548L11.2465 9.54169V16.5744L0.173828 23.5541V20.423Z" fill="#1C60DD"/>
<path opacity="0.7" fill-rule="evenodd" clip-rule="evenodd" d="M4.7627 20.6085L15.6811 13.8195V19.3948C15.6811 19.3948 15.5152 21.235 14.717 21.5778C14.1268 21.8186 4.76561 27.3575 4.76561 27.3575L4.7627 20.6085Z" fill="#1C60DD"/>
<path opacity="0.9" fill-rule="evenodd" clip-rule="evenodd" d="M10.709 23.9019L20.4151 18.1818V23.7564C20.4151 23.7564 20.4151 25.2975 19.451 25.8396C18.8288 26.1722 10.7112 30.8968 10.7112 30.8968L10.709 23.9019Z" fill="#1C60DD"/>
<path opacity="0.5" fill-rule="evenodd" clip-rule="evenodd" d="M14.7314 7.5501L20.068 4.1098V11.1389L14.7365 14.4017L14.7314 7.5501Z" fill="#1C60DD"/>
<path opacity="0.7" fill-rule="evenodd" clip-rule="evenodd" d="M19.0769 11.7384L24.4397 8.57098V15.8475L19.0747 18.9633L19.0769 11.7384Z" fill="#1C60DD"/>
<path opacity="0.5" fill-rule="evenodd" clip-rule="evenodd" d="M23.189 2.23462L26.841 0V4.84761C26.841 4.84761 26.841 7.27287 25.8769 7.75822C25.6914 7.85645 23.2086 9.30157 23.2086 9.30157L23.189 2.23462Z" fill="#1C60DD"/>
<path opacity="0.9" fill-rule="evenodd" clip-rule="evenodd" d="M23.2854 16.4297L26.9237 14.2467L26.84 19.8169C26.84 19.8169 26.9237 21.286 25.8758 21.9998C25.6343 22.2145 23.1566 23.4209 23.2003 23.4449C23.2439 23.4689 23.2709 16.2325 23.2854 16.4297Z" fill="#1C60DD"/>
<path opacity="0.7" fill-rule="evenodd" clip-rule="evenodd" d="M27.5684 6.7868L30.479 4.85999C30.479 4.85999 30.5081 7.75021 30.479 9.70832C30.4576 10.3031 30.3188 10.8878 30.0707 11.4287C29.8226 11.9696 29.4699 12.4563 29.0331 12.8605C29.0331 12.8605 27.5276 13.7977 27.5735 13.8239C27.6193 13.8501 27.5684 6.7868 27.5684 6.7868Z" fill="#1C60DD"/>
<path fill-rule="evenodd" clip-rule="evenodd" d="M11.2464 9.53659C11.2013 9.63119 2.34507 14.0262 1.00255 15.5339C1.68727 14.9561 0.420432 16.1044 0.274902 17.834L0.696211 34.089C0.696211 34.089 0.0194965 36.9021 3.34632 38.8143C5.71846 40.178 19.4391 47.9675 21.1236 48.7599C22.8081 49.5523 23.2425 48.3 23.2425 48.3V32.5223C23.2061 32.4794 23.7453 30.0294 20.858 28.1819C20.3035 27.7002 2.5248 19.6022 1.7695 17.0525C0.958167 14.3143 11.2464 10.2446 11.2464 9.53659Z" fill="white"/>
<path fill-rule="evenodd" clip-rule="evenodd" d="M22.4152 32.3804L23.2811 31.7539V48.5627C23.2811 48.5627 22.8634 49.4031 22.4152 49.4831C22.3621 49.4555 22.4152 32.3804 22.4152 32.3804Z" fill="#C0C9D7"/>
<path d="M1.15989 17.6055C1.28291 17.8009 1.42396 17.9843 1.5812 18.1534C1.4033 17.957 1.25388 17.7366 1.13734 17.4985C0.089519 14.796 7.68621 11.7574 10.8515 9.72723C10.8515 9.72723 3.16821 13.5423 1.64524 14.8732C0.299082 16.0491 0.202305 16.76 0.202305 16.76L0.0400391 17.7532C0.0735106 17.2715 0.0844254 16.8415 0.202305 16.76C0.187752 16.8437 1.14752 17.4796 1.15989 17.6055Z" fill="#1C60DD"/>
<path d="M20.0482 28.8499C19.4238 28.3223 11.4561 24.679 5.94629 21.3842C6.27373 21.5908 6.56552 21.772 6.79473 21.9234L19.8459 48.1683C20.1209 48.3138 20.3283 48.431 20.4869 48.5052L22.4152 49.4686V32.6097C22.3912 32.5907 22.6073 30.263 20.0482 28.8499Z" fill="#1C60DD"/>
<path opacity="0.3" d="M0.595218 36.2756C0.296862 35.6609 0.0960499 35.0034 0 34.3269C0.0292989 35.0165 0.234174 35.6873 0.595218 36.2756Z" fill="url(#paint0_linear)"/>
<path d="M5.9462 21.3842C3.99609 20.2302 2.38071 19.0936 1.58029 18.1542C1.42327 17.9848 1.28246 17.8012 1.15971 17.6055C1.14516 17.4796 0.213766 16.7549 0.238506 16.6683C0.120627 16.7505 0.045679 17.2606 0.012207 17.7452L0.0376748 34.3233C0.132269 35.5508 0.226864 35.5981 0.552851 36.2756C1.02946 37.0141 1.26522 37.2943 2.11512 38.0525C4.11033 39.2713 16.4644 46.3375 19.8633 48.1669L6.79464 21.9161L5.9462 21.3842Z" fill="#1C60DD"/>
<path opacity="0.2" d="M5.92437 21.3726C3.97426 20.2185 2.35888 19.0819 1.55846 18.1425C1.4084 17.9725 1.27488 17.7885 1.15971 17.5931C1.14516 17.468 0.210128 16.7432 0.238506 16.6566C0.180294 16.7127 0.0718744 17.3617 0.0384025 17.8456L0.012207 34.372C0.0595043 35.4046 0.261063 35.6905 0.557945 36.3061C0.982891 37.0141 1.52936 37.5431 2.14568 38.0409C4.14162 39.2597 16.4433 46.3259 19.8421 48.1552L6.77281 21.9045L5.92437 21.3726Z" fill="url(#paint1_linear)"/>
<path fill-rule="evenodd" clip-rule="evenodd" d="M19.6048 35.6803L16.8929 34.0067C16.4112 33.7273 15.947 33.9078 16.1849 34.4018V38.9053C16.3006 39.0719 16.5342 39.6111 16.4258 39.8832C16.0372 39.8643 17.9684 41.4841 19.0598 42.0946C19.3778 42.2728 19.9709 42.3471 19.925 41.6129V36.2632C19.9264 36.1466 19.8973 36.0317 19.8406 35.9299C19.7847 35.8279 19.7035 35.742 19.6048 35.6803Z" fill="#B0B5BE"/>
<path fill-rule="evenodd" clip-rule="evenodd" d="M19.4894 35.9503C19.0674 35.4249 17.6572 34.618 16.7003 33.9274C16.4595 33.7513 16.0404 33.8765 16.0455 34.1683C16.1059 37.5759 16.1182 39.144 16.3154 39.8112C16.4609 40.3206 18.0582 41.3909 18.9663 41.9942C19.2362 42.1768 19.6008 42.2205 19.6124 41.8901C19.6634 40.4574 19.6124 37.1335 19.6124 36.2836C19.6083 36.1613 19.5643 36.0438 19.4873 35.9489L19.4894 35.9503Z" fill="white"/>
<path fill-rule="evenodd" clip-rule="evenodd" d="M34.9497 32.6446C35.8745 33.5769 36.9799 34.3108 38.1982 34.8011C39.4164 35.2914 40.722 35.528 42.0348 35.4963C43.6974 35.5166 45.3379 35.1142 46.8024 34.3269C48.1983 33.5811 49.3674 32.4729 50.1867 31.1187L47.8822 29.4189C47.3398 30.3044 46.604 31.0555 45.7298 31.6158C44.8556 32.1761 43.8658 32.5311 42.8348 32.6543C41.8038 32.7774 40.7582 32.6653 39.7767 32.3265C38.7952 31.9877 37.9032 31.431 37.1676 30.6981C35.908 29.3273 35.209 27.5336 35.209 25.6719C35.209 23.8102 35.908 22.0164 37.1676 20.6456C37.9041 19.9142 38.7966 19.3588 39.7782 19.0211C40.7597 18.6835 41.805 18.5722 42.8356 18.6958C43.8662 18.8193 44.8556 19.1744 45.7295 19.7345C46.6035 20.2946 47.3395 21.0452 47.8822 21.9299L50.1867 20.2308C49.359 18.8812 48.1855 17.7773 46.7878 17.0335C45.3302 16.2409 43.6939 15.8346 42.0348 15.8533C40.7217 15.8188 39.4154 16.054 38.1968 16.5443C36.9781 17.0347 35.8729 17.7698 34.9497 18.7042C33.1013 20.5334 32.0552 23.0218 32.0416 25.6222C32.028 28.2226 33.0478 30.722 34.8769 32.5704C34.9007 32.5961 34.925 32.6209 34.9497 32.6446ZM53.6052 33.3184C54.2853 34.0305 55.1069 34.5921 56.0174 34.9672C56.9277 35.3424 57.9065 35.5226 58.8908 35.4963C59.8802 35.5242 60.8644 35.3466 61.7816 34.9747C62.6989 34.6029 63.5289 34.0449 64.2194 33.3359C65.6057 31.9705 66.393 30.1104 66.408 28.1646C66.423 26.2189 65.6645 24.3469 64.2995 22.9603L64.2194 22.8802C62.7995 21.4982 60.8972 20.7235 58.9157 20.7204C56.9343 20.7173 55.0295 21.486 53.6052 22.8635C52.9187 23.5463 52.3734 24.3576 52.0004 25.2513C51.6274 26.1448 51.4341 27.1031 51.4316 28.0714C51.429 29.0397 51.6172 29.999 51.9854 30.8945C52.3536 31.7901 52.8946 32.6043 53.5775 33.2907L53.6052 33.3184ZM62.0299 31.377C61.6291 31.7892 61.1509 32.1183 60.6228 32.3457C60.0947 32.573 59.527 32.6941 58.9521 32.702C58.3773 32.7099 57.8064 32.6044 57.2723 32.3917C56.7382 32.179 56.2511 31.8632 55.8391 31.4621C55.8143 31.4381 55.7896 31.4134 55.7663 31.3894C55.3518 30.9547 55.0275 30.4421 54.8124 29.8813C54.5971 29.3206 54.4952 28.7227 54.5126 28.1222C54.4966 27.5158 54.6003 26.9121 54.8178 26.3457C55.0353 25.7794 55.3623 25.2615 55.7801 24.8216C56.1719 24.4113 56.6406 24.0821 57.1595 23.8528C57.6785 23.6236 58.2376 23.4989 58.8047 23.4857C59.3719 23.4725 59.9361 23.5711 60.4651 23.776C60.9942 23.9809 61.4777 24.288 61.888 24.6797C61.9366 24.7282 61.9839 24.7755 62.0299 24.8216C62.4484 25.2612 62.7761 25.779 62.9942 26.3454C63.2124 26.9117 63.3166 27.5155 63.3011 28.1222C63.3152 28.7217 63.2105 29.318 62.993 29.8767C62.7754 30.4355 62.4493 30.9457 62.0336 31.3777L62.0299 31.377ZM71.7681 35.1804V21.0371H68.7454V35.1804H71.7681ZM70.2706 17.7532C70.8079 17.7597 71.3257 17.5526 71.7106 17.1776C71.9049 16.998 72.0593 16.7795 72.1636 16.5363C72.268 16.2931 72.3198 16.0306 72.316 15.766C72.3199 15.4989 72.2681 15.2339 72.1639 14.988C72.0596 14.742 71.9053 14.5205 71.7106 14.3376C71.5221 14.1482 71.2976 13.9986 71.0502 13.8976C70.8028 13.7966 70.5378 13.7463 70.2706 13.7496C69.9988 13.7444 69.7288 13.7937 69.4764 13.8947C69.2241 13.9957 68.9946 14.1463 68.8014 14.3376C68.6069 14.5206 68.4526 14.7421 68.3485 14.988C68.2443 15.234 68.1927 15.4989 68.1968 15.766C68.1928 16.0305 68.2446 16.293 68.3488 16.5363C68.4529 16.7794 68.6072 16.998 68.8014 17.1776C69.1958 17.5562 69.724 17.7632 70.2706 17.7532ZM85.9878 22.2464C85.4886 21.7304 84.884 21.327 84.216 21.0635C83.548 20.7999 82.8313 20.6823 82.1138 20.7184C81.3279 20.6864 80.5443 20.8213 79.8144 21.1144C79.0846 21.4073 78.4253 21.8517 77.8796 22.4182V21.0356H75.057V35.1804H78.0812V26.7397C78.0652 26.3051 78.1372 25.8718 78.2929 25.4659C78.4493 25.0599 78.6858 24.6897 78.9885 24.3777C79.2905 24.0721 79.6522 23.8324 80.0516 23.6737C80.4504 23.515 80.8783 23.4408 81.3076 23.4558C81.7223 23.4386 82.1364 23.5104 82.5213 23.6664C82.9062 23.8225 83.2533 24.059 83.5393 24.3603C84.1221 25.0118 84.4263 25.8662 84.3862 26.7397V35.1804H87.4104V26.3366C87.4875 24.8396 86.976 23.3719 85.9849 22.2472L85.9878 22.2464ZM93.8974 35.1804V27.8348H97.7852C99.4894 27.9055 101.155 27.3174 102.437 26.1925C102.989 25.6652 103.433 25.0343 103.742 24.3357C104.05 23.637 104.218 22.8845 104.236 22.1209C104.254 21.3574 104.121 20.5978 103.845 19.8856C103.569 19.1733 103.156 18.5225 102.628 17.97C102.571 17.9096 102.512 17.85 102.452 17.7925C101.161 16.6734 99.4915 16.0919 97.7852 16.1676H90.8441V35.1804H93.8974ZM93.8974 18.881H97.7277C98.6315 18.8286 99.5199 19.1327 100.202 19.728C100.504 20.0259 100.739 20.3841 100.893 20.7791C101.047 21.1742 101.116 21.5974 101.095 22.0209C101.116 22.4418 101.047 22.8623 100.893 23.2546C100.739 23.6469 100.504 24.002 100.202 24.2962C99.5156 24.8836 98.6293 25.1829 97.7277 25.1316H93.8974V18.881ZM115.821 22.2799C115.259 21.7494 114.595 21.3381 113.871 21.0707C113.145 20.8034 112.373 20.6855 111.601 20.7242C110.431 20.6713 109.267 20.922 108.222 21.4521C107.178 21.9822 106.288 22.7734 105.639 23.749L107.397 25.5303C108.568 24.1245 109.871 23.4274 111.314 23.4274C111.72 23.4025 112.125 23.4583 112.508 23.5919C112.892 23.7255 113.244 23.934 113.546 24.2053C113.824 24.5062 114.038 24.8607 114.174 25.2471C114.31 25.6334 114.366 26.0435 114.339 26.4523V27.3735H110.336C108.982 27.3007 107.643 27.6865 106.534 28.4686C106.08 28.8078 105.714 29.2523 105.468 29.7638C105.222 30.2754 105.104 30.8389 105.124 31.4061C105.105 31.9716 105.217 32.5336 105.452 33.0483C105.687 33.563 106.037 34.0163 106.477 34.3728C107.496 35.1605 108.762 35.5589 110.048 35.4963C110.897 35.5466 111.747 35.4014 112.53 35.0719C113.315 34.7424 114.013 34.2373 114.571 33.5956V35.1804H117.393V26.6247C117.392 24.7583 116.868 23.3124 115.821 22.2755V22.2799ZM113.291 32.2124C112.575 32.8512 111.643 33.1916 110.684 33.1634C110.045 33.1929 109.413 33.0142 108.884 32.654C108.667 32.5004 108.492 32.2952 108.373 32.0569C108.255 31.8186 108.199 31.5548 108.207 31.289C108.207 30.1364 109.043 29.5604 110.713 29.5608H114.342V29.8198C114.352 30.2713 114.264 30.7194 114.082 31.1327C113.9 31.546 113.63 31.9145 113.291 32.2124ZM125.561 31.3195L121.499 21.0371H118.239L123.885 34.5459L123.308 35.871C123.083 36.5005 122.663 37.0415 122.108 37.4146C121.554 37.7878 120.895 37.9736 120.227 37.9448C119.9 37.9448 119.343 37.904 118.553 37.8291V40.3926C119.316 40.5865 120.099 40.6842 120.886 40.6837C121.98 40.7188 123.056 40.3885 123.942 39.745C124.889 38.957 125.623 37.9423 126.073 36.7951L132.958 21.04H129.736L125.561 31.3195ZM154.324 22.2588C153.834 21.7414 153.237 21.3361 152.577 21.0706C151.915 20.8052 151.204 20.6857 150.493 20.7206C149.576 20.6755 148.661 20.8538 147.829 21.2402C146.995 21.6265 146.269 22.2093 145.711 22.9384C144.808 21.458 143.377 20.7187 141.418 20.7206C140.659 20.6933 139.904 20.8253 139.199 21.1081C138.494 21.3909 137.857 21.8181 137.328 22.3621V21.0378H134.505V35.1804H137.529V26.7688C137.492 25.8926 137.802 25.0371 138.395 24.3901C138.684 24.0894 139.034 23.8535 139.421 23.6975C139.808 23.5417 140.224 23.4695 140.641 23.4856C141.045 23.4677 141.449 23.5394 141.823 23.6958C142.196 23.8522 142.531 24.0893 142.801 24.3901C143.359 25.0536 143.648 25.9027 143.608 26.7688V35.1804H146.632V26.6247C146.616 26.2092 146.683 25.7945 146.831 25.4056C146.979 25.0167 147.203 24.6614 147.49 24.361C147.784 24.0681 148.136 23.8393 148.522 23.6891C148.909 23.5387 149.322 23.4703 149.737 23.4878C150.139 23.4682 150.54 23.5382 150.911 23.6926C151.282 23.847 151.614 24.082 151.883 24.3806C152.438 25.0497 152.721 25.903 152.675 26.771V35.1804H155.731V26.3366C155.802 24.8473 155.296 23.3878 154.319 22.2617L154.324 22.2588ZM171.821 27.201C171.843 26.3429 171.688 25.4894 171.366 24.6936C171.044 23.8978 170.562 23.1768 169.949 22.5753C169.338 21.9656 168.609 21.4867 167.807 21.1678C167.004 20.8489 166.146 20.6968 165.283 20.7206C164.316 20.6919 163.354 20.868 162.461 21.2373C161.567 21.6067 160.763 22.1609 160.098 22.8635C159.052 23.9143 158.345 25.2549 158.068 26.712C157.792 28.1691 157.96 29.6755 158.549 31.0363C159.139 32.3971 160.123 33.5496 161.375 34.3448C162.627 35.1399 164.089 35.5411 165.571 35.4963C166.614 35.5072 167.651 35.3119 168.618 34.9214C169.586 34.5309 170.468 33.953 171.212 33.2209L169.772 31.1471C168.661 32.2063 167.188 32.8044 165.653 32.8207C164.546 32.8536 163.461 32.5012 162.585 31.8238C161.742 31.1487 161.19 30.1751 161.044 29.1046H171.586C171.729 28.4808 171.806 27.8438 171.816 27.2039L171.821 27.201ZM162.561 24.2176C163.288 23.5999 164.214 23.2681 165.168 23.2848C166.11 23.2574 167.027 23.5911 167.731 24.2176C168.078 24.5382 168.352 24.929 168.535 25.3639C168.718 25.7989 168.806 26.268 168.793 26.7397H161.102C161.287 25.7579 161.8 24.868 162.558 24.2162L162.561 24.2176ZM185.183 22.2472C184.683 21.7311 184.079 21.3278 183.411 21.0642C182.743 20.8007 182.026 20.683 181.309 20.7191C180.523 20.6869 179.739 20.8217 179.01 21.1146C178.28 21.4075 177.621 21.8518 177.075 22.4182V21.0356H174.252V35.1804H177.277V26.7397C177.26 26.3051 177.332 25.8718 177.488 25.4658C177.644 25.0598 177.881 24.6897 178.183 24.3777C178.485 24.0723 178.847 23.8326 179.246 23.6739C179.645 23.5152 180.073 23.4409 180.502 23.4558C180.917 23.4389 181.331 23.5109 181.716 23.6669C182.101 23.8229 182.449 24.0592 182.735 24.3603C183.317 25.0124 183.621 25.8664 183.582 26.7397V35.1804H186.607V26.3366C186.683 24.8395 186.171 23.3719 185.18 22.2472H185.183ZM196.07 32.7603C195.321 32.8199 194.574 32.6206 193.953 32.1956C193.707 31.9519 193.519 31.6563 193.401 31.3304C193.284 31.0044 193.241 30.6563 193.276 30.3117V23.6581H197.48V21.0385H193.275V17.3217H190.219V21.0378H187.915V23.6574H190.219V30.57C190.219 32.201 190.675 33.43 191.587 34.2571C192.667 35.1394 194.04 35.5812 195.432 35.4941C196.276 35.4714 197.115 35.3654 197.938 35.1775V32.6162C197.016 32.7086 196.392 32.7617 196.066 32.7617L196.07 32.7603ZM204.716 35.4963C206.054 35.5454 207.371 35.1503 208.461 34.3728C208.948 33.9998 209.339 33.5146 209.599 32.9585C209.859 32.4023 209.981 31.7917 209.955 31.1784C209.986 30.2778 209.661 29.4014 209.049 28.7393C208.198 27.9386 207.194 27.3175 206.097 26.9129L204.743 26.3657C204.215 26.1793 203.719 25.9113 203.275 25.5711C203.148 25.4642 203.046 25.3304 202.976 25.1795C202.906 25.0286 202.87 24.8642 202.872 24.6979C202.872 23.7942 203.515 23.343 204.801 23.3445C205.424 23.3381 206.041 23.4631 206.611 23.7112C207.182 23.9593 207.694 24.325 208.114 24.7845L209.755 22.9122C209.162 22.1968 208.411 21.6273 207.562 21.2478C206.713 20.8683 205.788 20.689 204.859 20.7235C203.572 20.669 202.306 21.0596 201.273 21.8295C200.82 22.1802 200.457 22.6337 200.214 23.1524C199.971 23.6713 199.856 24.2404 199.876 24.8129C199.845 25.6882 200.161 26.5402 200.754 27.1843C201.563 27.9497 202.519 28.5438 203.563 28.9306L205.003 29.5353C205.557 29.7342 206.081 30.0095 206.558 30.3532C206.697 30.4661 206.809 30.6096 206.884 30.7726C206.959 30.9354 206.995 31.1134 206.99 31.2926C206.997 31.5253 206.941 31.7556 206.83 31.9601C206.719 32.1645 206.555 32.3359 206.356 32.4568C205.862 32.7545 205.291 32.9007 204.715 32.8774C203.351 32.8774 202.026 32.2054 200.74 30.8611L199.008 32.7596C199.667 33.6424 200.53 34.3525 201.523 34.8291C202.517 35.3057 203.61 35.5346 204.711 35.4963H204.716Z" fill="#0D1014"/>
<path d="M68.6693 46.1912C68.649 45.2337 68.9851 44.4119 69.6779 43.726C70.3773 43.04 71.2059 42.7038 72.1635 42.7174C72.7544 42.7174 73.2941 42.8465 73.783 43.1046C74.2793 43.3626 74.6693 43.7158 74.9546 44.164L74.3637 44.6326C73.8136 43.8448 73.0838 43.4509 72.1737 43.4509C71.4131 43.4509 70.7746 43.7124 70.2585 44.2353C69.7492 44.7583 69.4945 45.4103 69.4945 46.1912C69.4945 46.9722 69.7492 47.6242 70.2585 48.1472C70.7746 48.6701 71.4131 48.9316 72.1737 48.9316C73.0838 48.9316 73.8136 48.5377 74.3637 47.7499L74.9546 48.2185C74.6693 48.6667 74.2793 49.0198 73.783 49.2779C73.2941 49.536 72.7544 49.6651 72.1635 49.6651C71.2059 49.6787 70.3773 49.3425 69.6779 48.6565C68.9851 47.9706 68.649 47.1488 68.6693 46.1912ZM79.2724 44.5919V45.2846H78.977C78.5426 45.2846 78.1722 45.417 77.8666 45.6819C77.5675 45.9468 77.4184 46.2999 77.4184 46.7414V49.553H76.634V44.5919H77.3674V45.2948C77.7342 44.799 78.2472 44.5511 78.9057 44.5511C79.0345 44.5511 79.1567 44.5647 79.2724 44.5919ZM84.155 44.5919H84.9903L82.5454 50.2457C82.1787 51.0811 81.6184 51.4987 80.8645 51.4987C80.5997 51.4987 80.345 51.4648 80.1005 51.3969V50.7347C80.3857 50.7687 80.5866 50.7856 80.7015 50.7856C80.9737 50.7856 81.1978 50.7245 81.3739 50.6023C81.5507 50.4868 81.6999 50.283 81.8221 49.991L82.087 49.4002L80.0292 44.5919H80.8747L82.5148 48.5445L84.155 44.5919ZM90.7875 45.2235C91.2561 45.7192 91.4904 46.3339 91.4904 47.0673C91.4904 47.8008 91.2532 48.4188 90.7773 48.9214C90.3087 49.4171 89.728 49.6651 89.0353 49.6651C88.2545 49.6651 87.647 49.39 87.2118 48.8399V51.3867H86.4274V44.5919H87.1609V45.3865C87.3515 45.1012 87.6128 44.8805 87.9453 44.7243C88.2786 44.5613 88.6417 44.4798 89.0353 44.4798C89.7419 44.4798 90.3262 44.7277 90.7875 45.2235ZM90.1763 48.412C90.5161 48.0589 90.6856 47.614 90.6856 47.0775C90.6856 46.541 90.5161 46.0961 90.1763 45.743C89.8437 45.383 89.4261 45.2031 88.9233 45.2031C88.4481 45.2031 88.0406 45.3661 87.7008 45.6921C87.3683 46.0181 87.2016 46.4765 87.2016 47.0673C87.2016 47.6718 87.3646 48.137 87.6906 48.463C88.0239 48.7822 88.4343 48.9418 88.9233 48.9418C89.4261 48.9418 89.8437 48.7652 90.1763 48.412ZM95.8796 48.8908V49.553C95.5471 49.6277 95.272 49.6651 95.0544 49.6651C94.5247 49.6651 94.1136 49.5292 93.8218 49.2576C93.53 48.9859 93.3838 48.5852 93.3838 48.0555V45.2948H92.5484V44.5919H93.3838V43.237H94.1682V44.5919H95.7166V45.2948H94.1682V48.0046C94.1682 48.3441 94.2533 48.5886 94.4228 48.738C94.5997 48.8806 94.8645 48.952 95.2174 48.952C95.4074 48.952 95.6286 48.9316 95.8796 48.8908ZM96.899 47.0673C96.8859 46.361 97.137 45.7498 97.6529 45.2337C98.1761 44.7175 98.7909 44.4662 99.4967 44.4798C100.21 44.4662 100.825 44.7175 101.341 45.2337C101.857 45.7498 102.108 46.361 102.094 47.0673C102.108 47.7668 101.854 48.3781 101.33 48.901C100.808 49.4171 100.193 49.6685 99.4866 49.6549C98.7807 49.6685 98.1695 49.4171 97.6529 48.901C97.137 48.3781 96.8859 47.7668 96.899 47.0673ZM101.29 47.0775C101.29 46.5478 101.116 46.103 100.77 45.743C100.431 45.383 100.006 45.2031 99.4967 45.2031C98.9874 45.2031 98.5595 45.383 98.2132 45.743C97.8741 46.0961 97.7038 46.541 97.7038 47.0775C97.7038 47.6005 97.8741 48.0419 98.2132 48.4019C98.5595 48.755 98.9845 48.9316 99.4866 48.9316C99.9894 48.9316 100.414 48.7516 100.76 48.3917C101.114 48.0317 101.29 47.5936 101.29 47.0775ZM107.001 49.553V42.8295H109.364C110.01 42.8295 110.529 43.0129 110.923 43.3796C111.317 43.7396 111.514 44.2048 111.514 44.7752C111.514 45.3525 111.317 45.8245 110.923 46.1912C110.529 46.558 110.01 46.7414 109.364 46.7414H107.796V49.553H107.001ZM107.796 46.0283H109.344C109.765 46.0283 110.094 45.9162 110.332 45.6921C110.57 45.468 110.689 45.1658 110.689 44.7854C110.689 44.4119 110.57 44.1131 110.332 43.889C110.094 43.6581 109.765 43.5426 109.344 43.5426H107.796V46.0283ZM116.694 46.4969V49.553H115.961V48.9112C115.58 49.4138 115.023 49.6651 114.29 49.6651C113.774 49.6651 113.356 49.5394 113.037 49.2881C112.717 49.03 112.558 48.6905 112.558 48.2694C112.558 47.8483 112.721 47.5122 113.047 47.2609C113.373 47.0096 113.805 46.884 114.341 46.884H115.91V46.4561C115.91 46.0554 115.801 45.7464 115.584 45.5291C115.373 45.3117 115.081 45.2031 114.708 45.2031C114.151 45.2031 113.668 45.468 113.261 45.9977L112.741 45.5698C113.183 44.8431 113.855 44.4798 114.758 44.4798C115.356 44.4798 115.828 44.6564 116.174 45.0095C116.521 45.3559 116.694 45.8517 116.694 46.4969ZM115.91 47.648V47.5258H114.432C113.719 47.5258 113.363 47.7601 113.363 48.2287C113.363 48.4732 113.458 48.6667 113.648 48.8093C113.845 48.9452 114.093 49.0131 114.392 49.0131C114.806 49.0131 115.162 48.8806 115.461 48.6158C115.76 48.3509 115.91 48.0283 115.91 47.648ZM122.189 44.5919H123.024L120.579 50.2457C120.212 51.0811 119.652 51.4987 118.898 51.4987C118.633 51.4987 118.379 51.4648 118.133 51.3969V50.7347C118.419 50.7687 118.619 50.7856 118.735 50.7856C119.007 50.7856 119.231 50.7245 119.407 50.6023C119.584 50.4868 119.733 50.283 119.856 49.991L120.121 49.4002L118.063 44.5919H118.908L120.548 48.5445L122.189 44.5919ZM131.703 46.4357V49.553H130.919V46.5376C130.919 46.1301 130.814 45.8076 130.603 45.5698C130.399 45.3253 130.114 45.2031 129.747 45.2031C129.381 45.2031 129.075 45.3253 128.831 45.5698C128.593 45.8143 128.474 46.1132 128.474 46.4663V49.553H127.69V46.5376C127.69 46.1369 127.581 45.8143 127.364 45.5698C127.153 45.3253 126.868 45.2031 126.508 45.2031C126.135 45.2031 125.829 45.3288 125.591 45.58C125.36 45.8245 125.245 46.1437 125.245 46.5376V49.553H124.46V44.5919H125.194V45.1114C125.56 44.6903 126.053 44.4798 126.671 44.4798C127.391 44.4798 127.901 44.765 128.199 45.3355C128.6 44.765 129.167 44.4798 129.9 44.4798C130.464 44.4798 130.906 44.6564 131.224 45.0095C131.544 45.3627 131.703 45.8381 131.703 46.4357ZM138.051 47.3118H134.129C134.176 47.8008 134.369 48.1947 134.709 48.4935C135.048 48.7924 135.463 48.9418 135.952 48.9418C136.515 48.9418 137.022 48.7177 137.47 48.2694L137.928 48.7991C137.371 49.3764 136.709 49.6651 135.942 49.6651C135.201 49.6651 134.577 49.4171 134.067 48.9214C133.565 48.4188 133.314 47.8042 133.314 47.0775C133.314 46.3577 133.558 45.7464 134.047 45.2438C134.543 44.7345 135.144 44.4798 135.85 44.4798C136.495 44.4798 137.032 44.6903 137.46 45.1114C137.894 45.5325 138.112 46.069 138.112 46.721C138.112 46.9111 138.091 47.1081 138.051 47.3118ZM134.159 46.6191H137.307C137.3 46.1845 137.157 45.8381 136.879 45.58C136.6 45.3219 136.25 45.1929 135.83 45.1929C135.415 45.1929 135.056 45.3253 134.75 45.5902C134.444 45.8483 134.247 46.1912 134.159 46.6191ZM143.901 46.4357V49.553H143.116V46.5274C143.116 46.1335 143.004 45.8143 142.78 45.5698C142.563 45.3253 142.264 45.2031 141.884 45.2031C141.503 45.2031 141.191 45.3288 140.947 45.58C140.702 45.8245 140.58 46.1403 140.58 46.5274V49.553H139.795V44.5919H140.529V45.1216C140.916 44.6937 141.425 44.4798 142.057 44.4798C142.627 44.4798 143.076 44.6598 143.402 45.0197C143.734 45.3729 143.901 45.8449 143.901 46.4357ZM148.58 48.8908V49.553C148.248 49.6277 147.973 49.6651 147.755 49.6651C147.226 49.6651 146.815 49.5292 146.523 49.2576C146.231 48.9859 146.085 48.5852 146.085 48.0555V45.2948H145.249V44.5919H146.085V43.237H146.869V44.5919H148.417V45.2948H146.869V48.0046C146.869 48.3441 146.954 48.5886 147.124 48.738C147.3 48.8806 147.565 48.952 147.918 48.952C148.109 48.952 148.329 48.9316 148.58 48.8908ZM149.587 48.6973L150.087 48.1777C150.345 48.4426 150.579 48.6362 150.79 48.7584C151.007 48.8806 151.248 48.9418 151.513 48.9418C151.792 48.9418 152.019 48.8806 152.195 48.7584C152.372 48.6294 152.46 48.4562 152.46 48.2389C152.46 48.0487 152.396 47.9027 152.267 47.8008C152.144 47.6922 151.92 47.5733 151.594 47.4443L151.116 47.2405C150.688 47.0639 150.375 46.8704 150.178 46.6599C149.982 46.4493 149.883 46.1845 149.883 45.8653C149.883 45.4442 150.039 45.108 150.351 44.8567C150.671 44.6055 151.072 44.4798 151.554 44.4798C152.226 44.4798 152.78 44.7413 153.214 45.2642L152.735 45.7532C152.369 45.3865 151.961 45.2031 151.513 45.2031C151.262 45.2031 151.062 45.2575 150.912 45.3661C150.763 45.4747 150.688 45.6275 150.688 45.8245C150.688 45.9807 150.742 46.1098 150.851 46.2116C150.966 46.3067 151.18 46.4188 151.492 46.5478L151.951 46.7414C152.427 46.9451 152.763 47.159 152.959 47.3831C153.163 47.6005 153.265 47.8755 153.265 48.2083C153.265 48.6701 153.095 49.03 152.756 49.2881C152.423 49.5394 152.012 49.6651 151.523 49.6651C150.728 49.6651 150.084 49.3425 149.587 48.6973ZM164.119 42.7174H164.394V49.553H163.599V44.7345L161.45 47.648H161.164L159.005 44.7141V49.553H158.21V42.7174H158.495L161.297 46.5987L164.119 42.7174ZM170.161 46.4969V49.553H169.428V48.9112C169.048 49.4138 168.49 49.6651 167.757 49.6651C167.241 49.6651 166.823 49.5394 166.504 49.2881C166.185 49.03 166.025 48.6905 166.025 48.2694C166.025 47.8483 166.188 47.5122 166.514 47.2609C166.84 47.0096 167.272 46.884 167.808 46.884H169.377V46.4561C169.377 46.0554 169.268 45.7464 169.051 45.5291C168.84 45.3117 168.549 45.2031 168.175 45.2031C167.618 45.2031 167.135 45.468 166.728 45.9977L166.208 45.5698C166.65 44.8431 167.322 44.4798 168.225 44.4798C168.824 44.4798 169.295 44.6564 169.642 45.0095C169.988 45.3559 170.161 45.8517 170.161 46.4969ZM169.377 47.648V47.5258H167.899C167.186 47.5258 166.83 47.7601 166.83 48.2287C166.83 48.4732 166.925 48.6667 167.115 48.8093C167.312 48.9452 167.56 49.0131 167.859 49.0131C168.274 49.0131 168.63 48.8806 168.928 48.6158C169.227 48.3509 169.377 48.0283 169.377 47.648ZM176.063 41.9127H176.847V49.553H176.104V48.7686C175.913 49.0471 175.648 49.2678 175.309 49.4308C174.976 49.587 174.616 49.6651 174.229 49.6651C173.529 49.6651 172.946 49.4171 172.477 48.9214C172.009 48.4188 171.774 47.8042 171.774 47.0775C171.774 46.3441 172.009 45.7294 172.477 45.2337C172.952 44.7311 173.537 44.4798 174.229 44.4798C174.603 44.4798 174.953 44.5545 175.279 44.7039C175.605 44.8533 175.866 45.0605 176.063 45.3253V41.9127ZM176.073 47.0775C176.073 46.4799 175.903 46.0181 175.564 45.6921C175.231 45.3661 174.823 45.2031 174.341 45.2031C173.839 45.2031 173.417 45.3797 173.078 45.7328C172.745 46.086 172.579 46.5308 172.579 47.0673C172.579 47.6038 172.745 48.0521 173.078 48.412C173.417 48.7652 173.839 48.9418 174.341 48.9418C174.823 48.9418 175.231 48.7788 175.564 48.4528C175.903 48.1268 176.073 47.6684 176.073 47.0775ZM183.253 47.3118H179.331C179.379 47.8008 179.572 48.1947 179.912 48.4935C180.251 48.7924 180.665 48.9418 181.154 48.9418C181.718 48.9418 182.224 48.7177 182.672 48.2694L183.131 48.7991C182.574 49.3764 181.912 49.6651 181.144 49.6651C180.404 49.6651 179.779 49.4171 179.27 48.9214C178.768 48.4188 178.516 47.8042 178.516 47.0775C178.516 46.3577 178.76 45.7464 179.249 45.2438C179.746 44.7345 180.347 44.4798 181.053 44.4798C181.698 44.4798 182.234 44.6903 182.662 45.1114C183.097 45.5325 183.314 46.069 183.314 46.721C183.314 46.9111 183.294 47.1081 183.253 47.3118ZM179.361 46.6191H182.509C182.503 46.1845 182.36 45.8381 182.081 45.58C181.803 45.3219 181.453 45.1929 181.032 45.1929C180.618 45.1929 180.258 45.3253 179.952 45.5902C179.647 45.8483 179.45 46.1912 179.361 46.6191Z" fill="#605E73"/>
<path d="M188.067 49.553V42.8295H192.59V44.0724H189.443V45.4374H191.755V46.6089H189.443V48.3102H192.713V49.553H188.067ZM198.349 46.558V49.553H197.086V49.064C196.691 49.4715 196.179 49.6753 195.548 49.6753C195.018 49.6753 194.593 49.5361 194.274 49.2576C193.961 48.9791 193.806 48.6158 193.806 48.1676C193.806 47.7126 193.975 47.356 194.315 47.0979C194.661 46.8331 195.126 46.7006 195.711 46.7006H196.974V46.4765C196.974 46.1913 196.892 45.9739 196.729 45.8245C196.573 45.6683 196.342 45.5902 196.037 45.5902C195.785 45.5902 195.558 45.6446 195.354 45.7532C195.15 45.8619 194.933 46.0385 194.702 46.283L193.989 45.4374C194.573 44.7447 195.306 44.3983 196.189 44.3983C196.854 44.3983 197.381 44.5885 197.768 44.9688C198.156 45.3423 198.349 45.8721 198.349 46.558ZM196.974 47.6684V47.6073H195.894C195.425 47.6073 195.191 47.777 195.191 48.1166C195.191 48.2864 195.255 48.4223 195.385 48.5241C195.52 48.6192 195.697 48.6667 195.914 48.6667C196.22 48.6667 196.471 48.5751 196.668 48.3917C196.872 48.2016 196.974 47.9604 196.974 47.6684ZM199.52 48.6973L200.213 47.862C200.647 48.317 201.119 48.5445 201.629 48.5445C201.819 48.5445 201.971 48.5105 202.087 48.4426C202.209 48.3679 202.27 48.2627 202.27 48.1268C202.27 48.025 202.233 47.9469 202.158 47.8925C202.09 47.8314 201.955 47.7567 201.751 47.6684L201.211 47.4443C200.728 47.2473 200.379 47.0334 200.162 46.8025C199.944 46.5648 199.836 46.266 199.836 45.906C199.836 45.4374 200.005 45.0707 200.345 44.8058C200.684 44.5342 201.132 44.3983 201.69 44.3983C202.436 44.3983 203.041 44.6496 203.503 45.1522L202.81 45.9977C202.47 45.6785 202.094 45.5189 201.68 45.5189C201.319 45.5189 201.14 45.6378 201.14 45.8755C201.14 45.9706 201.177 46.0487 201.252 46.1098C201.326 46.1709 201.466 46.2422 201.669 46.3237L202.158 46.5275C202.66 46.7312 203.021 46.9485 203.238 47.1794C203.462 47.4103 203.574 47.7057 203.574 48.0657C203.574 48.5683 203.387 48.9622 203.014 49.2474C202.647 49.5326 202.179 49.6753 201.608 49.6753C200.704 49.6753 200.009 49.3493 199.52 48.6973ZM208.363 44.5104H209.81L207.395 49.9911C207.164 50.514 206.889 50.8977 206.57 51.1422C206.251 51.3867 205.857 51.5089 205.388 51.5089C205.103 51.5089 204.808 51.4682 204.502 51.3867V50.2356C204.78 50.2627 204.977 50.2763 205.093 50.2763C205.351 50.2763 205.562 50.2254 205.725 50.1235C205.888 50.0216 206.027 49.845 206.142 49.5938L206.295 49.2474L204.359 44.5104H205.816L207.049 47.8212L208.363 44.5104Z" fill="#1C60DD"/>
<defs>
<linearGradient id="paint0_linear" x1="8.96611" y1="25.3221" x2="0.394973" y2="35.1891" gradientUnits="userSpaceOnUse">
<stop/>
<stop offset="1" stop-color="#1C60DD" stop-opacity="0"/>
</linearGradient>
<linearGradient id="paint1_linear" x1="13.0859" y1="28.9023" x2="4.5149" y2="38.7692" gradientUnits="userSpaceOnUse">
<stop offset="0.19"/>
<stop offset="1" stop-color="#1C60DD" stop-opacity="0"/>
</linearGradient>
</defs>
</svg>
